<svg xmlns="http://www.w3.org/2000/svg" viewBox="0 0 900 560" width="900" height="560">
<rect width="100%" height="100%" fill="white"/>
<style>text{font-family:Arial,Helvetica,sans-serif;fill:#202124}.tick{font-size:13px}.label{font-size:16px}.title{font-size:22px;font-weight:700}.legend{font-size:14px}</style>
<text x="450.0" y="32" text-anchor="middle" class="title">COCO-1k CLIP Filtering Tradeoff</text>
<line x1="86.0" y1="58" x2="86.0" y2="478" stroke="#edf0f2"/>
<line x1="86" y1="478.0" x2="868" y2="478.0" stroke="#edf0f2"/>
<text x="86.0" y="503" text-anchor="middle" class="tick">0.0</text>
<text x="70" y="483.0" text-anchor="end" class="tick">0.0</text>
<line x1="242.4" y1="58" x2="242.4" y2="478" stroke="#edf0f2"/>
<line x1="86" y1="394.0" x2="868" y2="394.0" stroke="#edf0f2"/>
<text x="242.4" y="503" text-anchor="middle" class="tick">0.2</text>
<text x="70" y="399.0" text-anchor="end" class="tick">0.2</text>
<line x1="398.8" y1="58" x2="398.8" y2="478" stroke="#edf0f2"/>
<line x1="86" y1="310.0" x2="868" y2="310.0" stroke="#edf0f2"/>
<text x="398.8" y="503" text-anchor="middle" class="tick">0.4</text>
<text x="70" y="315.0" text-anchor="end" class="tick">0.4</text>
<line x1="555.2" y1="58" x2="555.2" y2="478" stroke="#edf0f2"/>
<line x1="86" y1="226.0" x2="868" y2="226.0" stroke="#edf0f2"/>
<text x="555.2" y="503" text-anchor="middle" class="tick">0.6</text>
<text x="70" y="231.0" text-anchor="end" class="tick">0.6</text>
<line x1="711.6" y1="58" x2="711.6" y2="478" stroke="#edf0f2"/>
<line x1="86" y1="142.0" x2="868" y2="142.0" stroke="#edf0f2"/>
<text x="711.6" y="503" text-anchor="middle" class="tick">0.8</text>
<text x="70" y="147.0" text-anchor="end" class="tick">0.8</text>
<line x1="868.0" y1="58" x2="868.0" y2="478" stroke="#edf0f2"/>
<line x1="86" y1="58.0" x2="868" y2="58.0" stroke="#edf0f2"/>
<text x="868.0" y="503" text-anchor="middle" class="tick">1.0</text>
<text x="70" y="63.0" text-anchor="end" class="tick">1.0</text>
<line x1="86" y1="478" x2="868" y2="478" stroke="#202124" stroke-width="1.5"/>
<line x1="86" y1="58" x2="86" y2="478" stroke="#202124" stroke-width="1.5"/>
<text x="477.0" y="536" text-anchor="middle" class="label">Normal collateral damage</text>
<text transform="translate(24 268.0) rotate(-90)" text-anchor="middle" class="label">Survival / hit rate</text>
<polyline points="86.0,58.0 125.1,58.0 164.2,58.0 203.3,58.0 242.4,58.0 281.5,58.0 320.6,58.0 359.7,58.0 398.8,58.0 437.9,58.0 477.0,58.0" fill="none" stroke="#1b9e77" stroke-width="3" stroke-linejoin="round" stroke-linecap="round"/>
<circle cx="86.0" cy="58.0" r="3.5" fill="#1b9e77"/>
<circle cx="125.1" cy="58.0" r="3.5" fill="#1b9e77"/>
<circle cx="164.2" cy="58.0" r="3.5" fill="#1b9e77"/>
<circle cx="203.3" cy="58.0" r="3.5" fill="#1b9e77"/>
<circle cx="242.4" cy="58.0" r="3.5" fill="#1b9e77"/>
<circle cx="281.5" cy="58.0" r="3.5" fill="#1b9e77"/>
<circle cx="320.6" cy="58.0" r="3.5" fill="#1b9e77"/>
<circle cx="359.7" cy="58.0" r="3.5" fill="#1b9e77"/>
<circle cx="398.8" cy="58.0" r="3.5" fill="#1b9e77"/>
<circle cx="437.9" cy="58.0" r="3.5" fill="#1b9e77"/>
<circle cx="477.0" cy="58.0" r="3.5" fill="#1b9e77"/>
<polyline points="86.0,58.0 125.1,110.5 164.2,268.0 203.3,320.5 242.4,373.0 281.5,425.5 320.6,478.0 359.7,478.0 398.8,478.0 437.9,478.0 477.0,478.0" fill="none" stroke="#d95f02" stroke-width="3" stroke-linejoin="round" stroke-linecap="round"/>
<circle cx="86.0" cy="58.0" r="3.5" fill="#d95f02"/>
<circle cx="125.1" cy="110.5" r="3.5" fill="#d95f02"/>
<circle cx="164.2" cy="268.0" r="3.5" fill="#d95f02"/>
<circle cx="203.3" cy="320.5" r="3.5" fill="#d95f02"/>
<circle cx="242.4" cy="373.0" r="3.5" fill="#d95f02"/>
<circle cx="281.5" cy="425.5" r="3.5" fill="#d95f02"/>
<circle cx="320.6" cy="478.0" r="3.5" fill="#d95f02"/>
<circle cx="359.7" cy="478.0" r="3.5" fill="#d95f02"/>
<circle cx="398.8" cy="478.0" r="3.5" fill="#d95f02"/>
<circle cx="437.9" cy="478.0" r="3.5" fill="#d95f02"/>
<circle cx="477.0" cy="478.0" r="3.5" fill="#d95f02"/>
<line x1="104" y1="76" x2="132" y2="76" stroke="#1b9e77" stroke-width="3"/>
<text x="142" y="81" class="legend">DeepSentinel</text>
<line x1="104" y1="100" x2="132" y2="100" stroke="#d95f02" stroke-width="3"/>
<text x="142" y="105" class="legend">Hidden outlier</text>
<line x1="104" y1="124" x2="132" y2="124" stroke="#7570b3" stroke-width="3"/>
<text x="142" y="129" class="legend">Visible key</text>
<line x1="104" y1="148" x2="132" y2="148" stroke="#333333" stroke-width="3"/>
<text x="142" y="153" class="legend">Deep trigger hit@20</text>
</svg>